<?xml version="1.0" encoding="utf-8"?>
<svg xmlns="http://www.w3.org/2000/svg" viewBox="52.215 384.329 388.197 78.854" xmlns:bx="https://boxy-svg.com">
  <g>
    <title>device</title>
    <g style="" transform="matrix(0.189168, 0, 0, 0.189168, 46.977959, 373.044037)">
      <g style="transform-origin: 246.363px 265.961px;" transform="matrix(0.707107, 0.707107, -0.707107, 0.707107, -3.026518, 8.626605)">
        <title>brackets</title>
        <polyline style="stroke: rgb(37, 104, 215); stroke-linejoin: round; stroke-linecap: round; fill: none; stroke-width: 32px;" points="246.67 396.945 115.422 397.213 115.83 265.338">
          <title>left-bracket</title>
        </polyline>
        <polyline style="stroke: rgb(37, 104, 215); stroke-linejoin: round; stroke-linecap: round; fill: none; stroke-width: 32px;" points="376.972 265.316 377.303 134.71 245.967 134.71">
          <title>right-bracket</title>
        </polyline>
      </g>
      <g style="transform-origin: 213.831px 233.186px;" transform="matrix(0.707107, 0.707107, -0.707107, 0.707107, 29.677309, -4.777428)">
        <title>arrow</title>
        <polyline style="stroke: rgb(216, 27, 27); stroke-linecap: round; stroke-linejoin: round; fill: none; stroke-width: 32px;" points="115.856 200.546 115.856 134.8 181.646 134.8"/>
        <line style="fill: rgb(216, 216, 216); stroke: rgb(216, 27, 27); stroke-linecap: round; stroke-linejoin: round; stroke-width: 32px;" x1="312.083" y1="331.571" x2="115.578" y2="135.065"/>
      </g>
      <g style="">
        <title>construction</title>
        <rect x="115.948" y="134.956" width="260.94" height="260.94" style="fill: rgb(216, 216, 216); stroke: rgb(0, 0, 0); visibility: hidden; transform-box: fill-box; transform-origin: 50% 50%;" transform="matrix(0.707107, 0.707107, -0.707107, 0.707107, -2.66432, 8.822281)"/>
        <polyline style="fill: rgb(216, 216, 216); stroke: rgb(0, 0, 0); visibility: hidden; transform-box: fill-box; transform-origin: 50% 50%;" points="113.41 405.202 374.702 143.37 113.058 143.855 374.514 405.12" transform="matrix(0.707107, 0.707107, -0.707107, 0.707107, -0.000002, -0.000016)"/>
        <line style="fill: rgb(216, 216, 216); stroke: rgb(0, 0, 0); visibility: hidden; transform-origin: 241.597px 277.242px;" x1="345.896" y1="172.942" x2="137.298" y2="381.541"/>
        <line style="fill: rgb(216, 216, 216); stroke: rgb(0, 0, 0); visibility: hidden; transform-origin: 235.316px 265.741px;" x1="115.641" y1="146.065" x2="354.992" y2="385.417"/>
        <line style="fill: rgb(216, 216, 216); stroke: rgb(0, 0, 0); visibility: hidden; transform-box: fill-box; transform-origin: 50% 50%;" x1="178.465" y1="433.287" x2="308.769" y2="301.629" transform="matrix(0.707107, 0.707107, -0.707107, 0.707107, -0.000008, 0.000007)"/>
        <line style="fill: rgb(216, 216, 216); stroke: rgb(0, 0, 0); visibility: hidden; transform-box: fill-box; transform-origin: 50% 50%;" x1="177.912" y1="247.649" x2="309.394" y2="117.127" transform="matrix(0.707107, 0.707107, -0.707107, 0.707107, -0.000017, 0.000017)"/>
        <line style="fill: rgb(216, 216, 216); stroke: rgb(0, 0, 0); pointer-events: none; visibility: hidden; transform-origin: 235.681px 190.72px;" x1="168.224" y1="258.177" x2="303.137" y2="123.263"/>
        <line style="fill: rgb(216, 216, 216); stroke: rgb(0, 0, 0); visibility: hidden; transform-origin: 239.896px 178.609px;" x1="298.922" y1="237.635" x2="180.869" y2="119.583"/>
      </g>
      <path d="M 549.514 384.824 Q 543.482 384.824 539.354 380.697 Q 535.227 376.569 535.227 370.537 L 535.227 234.329 Q 535.227 228.297 539.354 224.011 Q 543.482 219.724 549.514 219.724 Q 555.547 219.724 559.833 224.011 Q 564.119 228.297 564.119 234.329 L 564.119 247.347 Q 568.564 240.997 575.39 234.329 Q 582.217 227.662 592.694 222.899 Q 603.172 218.137 618.094 218.137 Q 637.144 218.137 649.368 228.297 Q 661.592 238.457 666.672 250.839 Q 670.482 244.807 677.467 237.187 Q 684.452 229.567 696.04 223.852 Q 707.629 218.137 725.092 218.137 Q 743.824 218.137 755.572 227.503 Q 767.319 236.869 772.717 250.839 Q 778.114 264.809 778.114 279.097 L 778.114 370.537 Q 778.114 376.569 773.828 380.697 Q 769.542 384.824 763.509 384.824 Q 757.477 384.824 753.349 380.697 Q 749.222 376.569 749.222 370.537 L 749.222 284.812 Q 749.222 264.809 742.078 254.808 Q 734.934 244.807 716.837 244.807 Q 704.772 244.807 696.199 249.411 Q 687.627 254.014 681.594 260.999 Q 675.562 267.984 671.117 275.287 L 671.117 370.537 Q 671.117 376.569 666.83 380.697 Q 662.544 384.824 656.512 384.824 Q 650.479 384.824 646.352 380.697 Q 642.224 376.569 642.224 370.537 L 642.224 284.812 Q 642.224 264.809 635.08 254.808 Q 627.937 244.807 609.839 244.807 Q 597.774 244.807 589.202 249.411 Q 580.629 254.014 574.597 260.999 Q 568.564 267.984 564.119 275.287 L 564.119 370.537 Q 564.119 376.569 559.833 380.697 Q 555.547 384.824 549.514 384.824 Z M 867.963 386.412 Q 854.31 386.412 842.404 380.697 Q 830.498 374.982 823.354 364.346 Q 816.21 353.709 816.21 338.787 Q 816.21 316.244 834.149 301.798 Q 852.088 287.352 889.235 287.352 L 927.653 287.352 L 927.653 284.812 Q 927.653 263.539 917.175 254.491 Q 906.698 245.442 885.108 245.442 Q 871.773 245.442 861.772 247.823 Q 851.77 250.204 842.88 253.062 Q 840.34 253.697 838.753 253.697 Q 833.99 253.697 830.498 250.204 Q 827.005 246.712 827.005 241.632 Q 827.005 233.059 835.26 229.567 Q 846.373 224.804 859.867 221.471 Q 873.36 218.137 890.188 218.137 Q 913.365 218.137 927.97 227.344 Q 942.575 236.552 949.56 250.839 Q 956.545 265.127 956.545 280.684 L 956.545 370.537 Q 956.545 376.569 952.259 380.697 Q 947.973 384.824 941.94 384.824 Q 935.908 384.824 931.78 380.697 Q 927.653 376.569 927.653 370.537 L 927.653 362.282 Q 919.08 371.172 904.793 378.792 Q 890.505 386.412 867.963 386.412 Z M 878.758 361.012 Q 893.68 361.012 906.698 353.709 Q 919.715 346.407 927.653 337.199 L 927.653 310.529 L 893.045 310.529 Q 870.82 310.529 857.962 316.244 Q 845.103 321.959 845.103 335.612 Q 845.103 345.772 852.247 353.392 Q 859.39 361.012 878.758 361.012 Z M 1019.369 384.824 Q 1013.337 384.824 1009.209 380.697 Q 1005.082 376.569 1005.082 370.537 L 1005.082 234.329 Q 1005.082 228.297 1009.209 224.011 Q 1013.337 219.724 1019.369 219.724 Q 1025.402 219.724 1029.688 224.011 Q 1033.974 228.297 1033.974 234.329 L 1033.974 247.982 Q 1042.547 236.552 1054.929 227.344 Q 1067.312 218.137 1083.822 218.137 L 1085.409 218.137 Q 1091.442 218.137 1095.411 222.264 Q 1099.379 226.392 1099.379 232.424 Q 1099.379 238.457 1095.252 242.267 Q 1091.124 246.077 1084.774 246.077 L 1083.187 246.077 Q 1067.629 246.077 1054.929 253.856 Q 1042.229 261.634 1033.974 274.017 L 1033.974 370.537 Q 1033.974 376.569 1029.688 380.697 Q 1025.402 384.824 1019.369 384.824 Z M 1140.97 384.824 Q 1134.937 384.824 1130.81 380.697 Q 1126.682 376.569 1126.682 370.537 L 1126.682 164.479 Q 1126.682 158.447 1130.81 154.161 Q 1134.937 149.874 1140.97 149.874 Q 1147.002 149.874 1151.289 154.161 Q 1155.575 158.447 1155.575 164.479 L 1155.575 294.337 L 1231.14 224.487 Q 1233.045 222.899 1235.426 221.629 Q 1237.807 220.359 1240.665 220.359 Q 1248.92 220.359 1251.777 224.963 Q 1254.635 229.567 1254.635 234.329 Q 1254.635 236.234 1253.682 238.933 Q 1252.73 241.632 1249.237 245.124 L 1203.517 286.082 L 1260.985 362.282 Q 1264.16 366.409 1264.16 370.854 Q 1264.16 377.204 1260.032 381.014 Q 1255.905 384.824 1249.555 384.824 Q 1242.887 384.824 1237.807 378.792 L 1183.197 304.497 L 1155.575 329.579 L 1155.575 370.537 Q 1155.575 376.569 1151.289 380.697 Q 1147.002 384.824 1140.97 384.824 Z M 1354.959 386.412 Q 1336.862 386.412 1324.162 377.998 Q 1311.462 369.584 1304.794 355.297 Q 1298.127 341.009 1298.127 324.182 L 1298.127 234.012 Q 1298.127 227.979 1302.413 223.852 Q 1306.699 219.724 1312.732 219.724 Q 1318.764 219.724 1322.892 223.852 Q 1327.019 227.979 1327.019 234.012 L 1327.019 321.007 Q 1327.019 339.104 1335.274 349.423 Q 1343.529 359.742 1361.944 359.742 Q 1379.089 359.742 1391.789 350.376 Q 1404.489 341.009 1414.014 329.262 L 1414.014 234.012 Q 1414.014 227.979 1418.3 223.852 Q 1422.587 219.724 1428.619 219.724 Q 1434.652 219.724 1438.779 223.852 Q 1442.907 227.979 1442.907 234.012 L 1442.907 370.219 Q 1442.907 376.252 1438.779 380.538 Q 1434.652 384.824 1428.619 384.824 Q 1422.587 384.824 1418.3 380.538 Q 1414.014 376.252 1414.014 370.219 L 1414.014 357.202 Q 1404.172 367.997 1390.202 377.204 Q 1376.232 386.412 1354.959 386.412 Z M 1507.387 457.849 Q 1501.354 457.849 1497.227 453.563 Q 1493.099 449.277 1493.099 443.244 L 1493.099 234.012 Q 1493.099 227.979 1497.227 223.852 Q 1501.354 219.724 1507.387 219.724 Q 1513.737 219.724 1517.864 223.852 Q 1521.992 227.979 1521.992 234.012 L 1521.992 242.267 Q 1533.104 230.837 1546.439 224.487 Q 1559.774 218.137 1576.284 218.137 Q 1595.652 218.137 1613.114 227.979 Q 1630.577 237.822 1641.848 256.554 Q 1653.119 275.287 1653.119 302.274 Q 1653.119 329.262 1641.848 347.994 Q 1630.577 366.727 1613.114 376.569 Q 1595.652 386.412 1576.284 386.412 Q 1559.774 386.412 1546.439 380.062 Q 1533.104 373.712 1521.992 362.282 L 1521.992 443.244 Q 1521.992 449.277 1517.864 453.563 Q 1513.737 457.849 1507.387 457.849 Z M 1572.157 359.424 Q 1594.699 359.424 1609.463 344.819 Q 1624.227 330.214 1624.227 302.274 Q 1624.227 274.017 1609.463 259.571 Q 1594.699 245.124 1572.157 245.124 Q 1556.599 245.124 1543.899 251.951 Q 1531.199 258.777 1521.992 268.937 L 1521.992 335.612 Q 1531.199 345.772 1543.899 352.598 Q 1556.599 359.424 1572.157 359.424 Z M 1707.691 384.824 Q 1701.658 384.824 1697.531 380.697 Q 1693.403 376.569 1693.403 370.537 L 1693.403 164.479 Q 1693.403 158.129 1697.531 154.002 Q 1701.658 149.874 1707.691 149.874 Q 1714.041 149.874 1718.168 154.002 Q 1722.296 158.129 1722.296 164.479 L 1722.296 370.537 Q 1722.296 376.569 1718.168 380.697 Q 1714.041 384.824 1707.691 384.824 Z M 1786.162 188.292 Q 1779.495 188.292 1774.732 183.529 Q 1769.97 178.767 1769.97 172.099 L 1769.97 170.829 Q 1769.97 164.162 1774.732 159.399 Q 1779.495 154.637 1786.162 154.637 L 1788.067 154.637 Q 1794.735 154.637 1799.497 159.399 Q 1804.26 164.162 1804.26 170.829 L 1804.26 172.099 Q 1804.26 178.767 1799.497 183.529 Q 1794.735 188.292 1788.067 188.292 Z M 1786.797 384.824 Q 1780.765 384.824 1776.637 380.697 Q 1772.51 376.569 1772.51 370.537 L 1772.51 234.329 Q 1772.51 227.979 1776.637 223.852 Q 1780.765 219.724 1786.797 219.724 Q 1793.147 219.724 1797.275 223.852 Q 1801.402 227.979 1801.402 234.329 L 1801.402 370.537 Q 1801.402 376.569 1797.275 380.697 Q 1793.147 384.824 1786.797 384.824 Z M 1877.912 384.824 Q 1871.879 384.824 1867.752 380.697 Q 1863.624 376.569 1863.624 370.537 L 1863.624 246.077 L 1844.892 246.077 Q 1839.812 246.077 1836.16 242.426 Q 1832.509 238.774 1832.509 233.694 Q 1832.509 228.297 1836.16 224.804 Q 1839.812 221.312 1844.892 221.312 L 1863.624 221.312 L 1863.624 202.897 Q 1863.624 182.894 1870.768 170.829 Q 1877.912 158.764 1889.024 153.526 Q 1900.137 148.287 1911.249 148.287 Q 1919.187 148.287 1926.172 150.033 Q 1933.157 151.779 1938.872 154.637 Q 1941.729 155.907 1943.952 158.923 Q 1946.174 161.939 1946.174 165.749 Q 1946.174 170.194 1942.84 174.004 Q 1939.507 177.814 1934.427 177.814 Q 1930.617 177.814 1926.807 176.862 Q 1922.997 175.909 1918.552 175.909 Q 1906.804 175.909 1899.66 181.466 Q 1892.517 187.022 1892.517 203.849 L 1892.517 221.312 L 1932.204 221.312 Q 1937.602 221.312 1941.094 224.804 Q 1944.587 228.297 1944.587 233.694 Q 1944.587 238.774 1941.094 242.426 Q 1937.602 246.077 1932.204 246.077 L 1892.517 246.077 L 1892.517 370.537 Q 1892.517 376.569 1888.389 380.697 Q 1884.262 384.824 1877.912 384.824 Z M 2025.523 386.412 Q 2019.808 386.412 2012.029 385.301 Q 2004.25 384.189 1996.789 380.221 Q 1989.328 376.252 1984.248 367.679 Q 1979.168 359.107 1979.168 344.502 L 1979.168 246.077 L 1956.625 246.077 Q 1950.593 246.077 1950.593 240.044 Q 1950.593 236.869 1953.45 234.647 L 1996.63 192.419 Q 1997.265 191.784 1998.694 190.673 Q 2000.123 189.562 2002.028 189.562 Q 2004.568 189.562 2006.314 191.467 Q 2008.06 193.372 2008.06 195.912 L 2008.06 221.312 L 2043.938 221.312 Q 2049.335 221.312 2052.828 224.804 Q 2056.32 228.297 2056.32 233.694 Q 2056.32 238.774 2052.828 242.426 Q 2049.335 246.077 2043.938 246.077 L 2008.06 246.077 L 2008.06 341.962 Q 2008.06 351.169 2011.553 355.297 Q 2015.045 359.424 2019.967 360.218 Q 2024.888 361.012 2028.698 361.012 Q 2036.318 361.012 2039.969 359.583 Q 2043.62 358.154 2047.748 358.154 Q 2052.193 358.154 2055.685 361.329 Q 2059.178 364.504 2059.178 369.584 Q 2059.178 376.887 2051.875 380.697 Q 2046.16 383.237 2039.652 384.824 Q 2033.143 386.412 2025.523 386.412 Z" style="fill: rgb(37, 104, 215); text-wrap-mode: nowrap;"/>
    </g>
  </g>
  <defs>
    <bx:export>
      <bx:file format="png" path="logo.png"/>
    </bx:export>
  </defs>
</svg>